<svg width="83" height="83" viewBox="0 0 83 83" fill="none" xmlns="http://www.w3.org/2000/svg">
<mask id="mask0_1_55" style="mask-type:luminance" maskUnits="userSpaceOnUse" x="0" y="0" width="83" height="83">
<path d="M26.0434 2.86724C30.2428 3.98767 34.1775 5.99916 37.5652 8.72524H15.8095C15.1478 9.23693 14.5127 9.77509 13.8863 10.3221H39.4091C41.2971 12.3335 42.9204 14.6009 44.2172 17.0711H7.77242C7.31366 17.7063 6.87256 18.3591 6.44027 19.0208H45.1612C45.8846 20.6706 46.4669 22.3998 46.8816 24.1907C47.0051 24.7112 47.1109 25.2405 47.2256 25.7698H2.94663C2.68197 26.4139 2.44378 27.0667 2.2144 27.7196H47.6226C48.0549 29.9604 48.4255 32.2101 48.7872 34.4686H0.511707C0.405839 35.1126 0.317619 35.7655 0.238219 36.4183H49.096C49.4488 38.6768 49.8194 40.9265 50.2428 43.1674H0C0.0352891 43.8202 0.0794037 44.4731 0.14116 45.1171H50.631C51.1162 47.358 51.7073 49.59 52.3425 51.8661H1.34981C1.52625 52.519 1.72036 53.1718 1.92328 53.8158H52.8895C53.2336 55.0245 53.5688 56.2508 53.9041 57.5212C51.6632 58.0594 49.7223 58.5887 47.7549 58.9945C46.4757 59.2592 45.567 59.7444 45.0465 60.5737H4.79051C5.1434 61.2354 5.51394 61.8882 5.8933 62.5234H44.5437C44.5437 62.6734 44.526 62.8146 44.5437 62.9734C44.6672 65.0642 44.6231 67.1728 44.5966 69.2725H11.0102C11.6366 69.9429 12.2894 70.5958 12.9599 71.2222H44.5789C44.5348 75.598 42.9468 77.583 38.9944 77.9712H22.585C28.1695 80.7943 34.4775 82.4 41.1559 82.4C63.9085 82.4 82.3559 63.9526 82.3559 41.2C82.3559 18.4474 63.9085 0 41.1559 0C35.8184 0 30.728 1.02339 26.0434 2.87607" fill="white"/>
</mask>
<g mask="url(#mask0_1_55)">
<path d="M82.3559 0H0V82.4H82.3559V0Z" fill="url(#paint0_linear_1_55)"/>
</g>
<defs>
<linearGradient id="paint0_linear_1_55" x1="-0.250994" y1="38.7628" x2="82.1049" y2="38.7628" gradientUnits="userSpaceOnUse">
<stop stop-color="#FFF21E"/>
<stop offset="1" stop-color="#00AC4E"/>
</linearGradient>
</defs>
</svg>
